<svg width="34" height="47" viewBox="0 0 34 47" fill="none" xmlns="http://www.w3.org/2000/svg">
<path d="M32.5778 21.6661L7.21206 0.750848C6.62538 0.266713 5.84222 0 5.00715 0C4.17209 0 3.38892 0.266713 2.80225 0.750848L0.934237 2.29075C-0.28129 3.29418 -0.28129 4.92502 0.934237 5.92692L22.2345 23.4903L0.910602 41.0731C0.323924 41.5572 0 42.2026 0 42.8908C0 43.5797 0.323924 44.2251 0.910602 44.7096L2.77861 46.2492C3.36575 46.7333 4.14845 47 4.98352 47C5.81859 47 6.60175 46.7333 7.18843 46.2492L32.5778 25.3148C33.1659 24.8292 33.4888 24.1807 33.487 23.4914C33.4888 22.7994 33.1659 22.1513 32.5778 21.6661Z" fill="#0CBDB8"/>
</svg>
