<svg width="34" height="47" viewBox="0 0 34 47" fill="none" xmlns="http://www.w3.org/2000/svg">
<path d="M11.2526 23.5099L32.5762 5.92659C33.1633 5.44359 33.4863 4.79782 33.4863 4.10925C33.4863 3.4203 33.1633 2.77491 32.5762 2.29115L30.7077 0.751236C30.1215 0.266715 29.3378 0 28.5028 0C27.6677 0 26.885 0.266715 26.2983 0.751236L0.909231 21.6857C0.320232 22.171 -0.00230466 22.8195 1.24155e-05 23.5088C-0.00230466 24.2012 0.319768 24.8489 0.909231 25.3345L26.2747 46.2488C26.8614 46.7333 27.6441 47 28.4796 47C29.3147 47 30.0974 46.7333 30.6845 46.2488L32.5526 44.7088C33.7681 43.7066 33.7681 42.0749 32.5526 41.073L11.2526 23.5099Z" fill="#0CBDB8"/>
</svg>
