<svg width="12" height="12" viewBox="0 0 12 12" fill="none" xmlns="http://www.w3.org/2000/svg">
<path d="M5.63274 11.304C6.1111 11.304 6.49888 10.8958 6.49888 10.3924C6.49888 9.88888 6.1111 9.48074 5.63274 9.48074C5.15439 9.48074 4.7666 9.88888 4.7666 10.3924C4.7666 10.8958 5.15439 11.304 5.63274 11.304Z" fill="#6A6868"/>
<path d="M9.71965 11.304C10.198 11.304 10.5858 10.8958 10.5858 10.3924C10.5858 9.88888 10.198 9.48074 9.71965 9.48074C9.2413 9.48074 8.85352 9.88888 8.85352 10.3924C8.85352 10.8958 9.2413 11.304 9.71965 11.304Z" fill="#6A6868"/>
<path d="M4.83464 4.2676C4.72933 4.2676 4.63341 4.20416 4.5874 4.10458L3.73455 2.25237C3.66358 2.09788 3.51485 2 3.35186 2H2.21905C2.09818 2 2 2.10299 2 2.2302V2.52111C2 2.64832 2.09818 2.75132 2.21905 2.75132H3.02978C3.08583 2.75132 3.13476 2.79122 3.14934 2.84817L4.50834 8.2786C4.63827 8.79869 5.08544 9.16156 5.59644 9.16156H9.82247C10.3153 9.16156 10.7502 8.82427 10.8966 8.32942L11.9877 4.6424C12.0133 4.55475 11.998 4.45892 11.9468 4.38526C11.895 4.31125 11.813 4.2676 11.7252 4.2676H4.83464Z" fill="#6A6868"/>
</svg>
