<svg width="16" height="16" viewBox="0 0 16 16" fill="none" xmlns="http://www.w3.org/2000/svg">
<path d="M5.81307 15.072C6.57844 15.072 7.1989 14.4515 7.1989 13.6861C7.1989 12.9208 6.57844 12.3003 5.81307 12.3003C5.0477 12.3003 4.42725 12.9208 4.42725 13.6861C4.42725 14.4515 5.0477 15.072 5.81307 15.072Z" fill="black"/>
<path d="M12.3512 15.072C13.1165 15.072 13.737 14.4515 13.737 13.6861C13.737 12.9208 13.1165 12.3003 12.3512 12.3003C11.5858 12.3003 10.9653 12.9208 10.9653 13.6861C10.9653 14.4515 11.5858 15.072 12.3512 15.072Z" fill="black"/>
<path d="M4.53543 4.37522C4.36694 4.37522 4.21347 4.27879 4.13985 4.1274L2.77528 1.31168C2.66174 1.07682 2.42377 0.928024 2.16299 0.928024H0.350475C0.157091 0.928024 0 1.0846 0 1.27798V1.72022C0 1.9136 0.157091 2.07018 0.350475 2.07018H1.64765C1.73734 2.07018 1.81563 2.13084 1.83896 2.21742L4.01335 10.4728C4.22125 11.2634 4.93672 11.815 5.75432 11.815H12.516C13.3046 11.815 14.0003 11.3023 14.2347 10.55L15.9803 4.945C16.0213 4.81176 15.9969 4.66608 15.915 4.55409C15.832 4.44159 15.7009 4.37522 15.5604 4.37522H4.53543Z" fill="black"/>
</svg>
