<svg width="47" height="51" viewBox="0 0 47 51" fill="none" xmlns="http://www.w3.org/2000/svg">
<path d="M43.2115 39.3068L37.0058 33.3019C34.7894 31.1572 31.0217 32.0152 30.1351 34.8031C29.4703 36.7333 27.2539 37.8056 25.2592 37.3766C20.8266 36.3043 14.8425 30.7283 13.7344 26.2246C13.0695 24.2944 14.3992 22.1498 16.3939 21.5065C19.2752 20.6486 20.1617 17.0028 17.9454 14.8581L11.7397 8.85322C9.9666 7.35199 7.30701 7.35199 5.75559 8.85322L1.54457 12.928C-2.66644 17.2172 1.98784 28.5837 12.4046 38.6634C22.8213 48.7431 34.5678 53.4613 39.0004 49.172L43.2115 45.0972C44.763 43.3816 44.763 40.808 43.2115 39.3068Z" fill="#0CBDB8"/>
</svg>
