<svg width="47" height="51" viewBox="0 0 47 51" fill="none" xmlns="http://www.w3.org/2000/svg">
<path d="M46.4839 5.28251C46.1397 4.90912 45.7309 4.7218 45.26 4.7218H17.4077C16.9363 4.7218 16.5281 4.90912 16.1838 5.28251C15.8394 5.65642 15.6671 6.09938 15.6671 6.61088V12.2777H11.315C10.8253 12.2777 10.2947 12.4056 9.72355 12.6613C9.15232 12.9175 8.69456 13.2317 8.35017 13.6057L2.96453 19.4496C2.72893 19.7053 2.52515 20.0002 2.35253 20.335C2.18038 20.6689 2.05339 20.9697 1.97175 21.2348C1.89029 21.5007 1.83104 21.8643 1.79512 22.3271C1.75911 22.7897 1.73606 23.1291 1.727 23.3457C1.71834 23.5619 1.71834 23.9359 1.727 24.4673C1.73615 24.9988 1.74072 25.3429 1.74072 25.5005V34.9449C1.26944 34.9449 0.861502 35.1317 0.516825 35.506C0.172338 35.8791 0 36.3222 0 36.8338C0 37.1286 0.036011 37.3896 0.108605 37.6156C0.181294 37.8419 0.303521 38.0238 0.476146 38.1618C0.648294 38.2998 0.797958 38.4126 0.924759 38.5014C1.05194 38.5898 1.26496 38.6486 1.5641 38.6782C1.86324 38.7079 2.06711 38.7278 2.176 38.7377C2.28489 38.7469 2.51591 38.7469 2.86945 38.7377C3.22337 38.7278 3.42724 38.7228 3.48173 38.7228H5.22236C5.22236 40.8079 5.90247 42.5887 7.26213 44.0646C8.62226 45.5402 10.2631 46.2782 12.1853 46.2782C14.1074 46.2782 15.7484 45.5402 17.1083 44.0646C18.4684 42.5888 19.148 40.8079 19.148 38.7228H29.5929C29.5929 40.8079 30.273 42.5887 31.6327 44.0646C32.9923 45.5402 34.6335 46.2782 36.5557 46.2782C38.4782 46.2782 40.1184 45.5402 41.4786 44.0646C42.8387 42.5888 43.5185 40.8079 43.5185 38.7228C43.5726 38.7228 43.7767 38.7278 44.1301 38.7377C44.4838 38.7469 44.715 38.7469 44.8238 38.7377C44.9328 38.7278 45.1371 38.7079 45.4361 38.6782C45.7351 38.6486 45.948 38.5899 46.0751 38.5014C46.2023 38.4129 46.3515 38.2998 46.5238 38.1618C46.6962 38.0238 46.8188 37.8419 46.8911 37.6156C46.9645 37.3895 47 37.1285 47 36.8338V6.61119C47.0004 6.09959 46.8282 5.65714 46.4839 5.28251ZM14.6328 41.379C13.9441 42.1264 13.1278 42.5011 12.185 42.5011C11.242 42.5011 10.426 42.1268 9.73688 41.379C9.04782 40.6318 8.70343 39.746 8.70343 38.723C8.70343 37.6999 9.0482 36.8137 9.73688 36.0662C10.4259 35.319 11.2419 34.9448 12.185 34.9448C13.1278 34.9448 13.944 35.3187 14.6328 36.0662C15.3221 36.8137 15.6667 37.6999 15.6667 38.723C15.6667 39.746 15.3221 40.6318 14.6328 41.379ZM15.6667 23.6112H5.22198V22.7261C5.22198 22.4703 5.30343 22.2538 5.46662 22.0766L10.7705 16.3215C10.9336 16.1443 11.1334 16.0561 11.3691 16.0561H15.6667V23.6112ZM39.0034 41.379C38.3146 42.1264 37.4984 42.5011 36.5557 42.5011C35.6125 42.5011 34.7961 42.1268 34.1073 41.379C33.4184 40.6318 33.0737 39.746 33.0737 38.723C33.0737 37.6999 33.4183 36.8137 34.1073 36.0662C34.7961 35.319 35.6125 34.9448 36.5557 34.9448C37.4984 34.9448 38.3146 35.3187 39.0034 36.0662C39.6922 36.8141 40.0372 37.6999 40.0372 38.723C40.0372 39.746 39.6929 40.6318 39.0034 41.379Z" fill="#0CBDB8"/>
</svg>
