<svg width="20" height="27" viewBox="0 0 20 27" fill="none" xmlns="http://www.w3.org/2000/svg">
<g filter="url(#filter0_d_118_186)">
<path fill-rule="evenodd" clip-rule="evenodd" d="M14.6234 1.00375L12.2249 1C9.5302 1 7.78878 2.73871 7.78878 5.42982V7.47227H5.37715C5.16875 7.47227 5 7.63668 5 7.83949V10.7988C5 11.0016 5.16895 11.1658 5.37715 11.1658H7.78878V18.633C7.78878 18.8358 7.95753 19 8.16593 19H11.3124C11.5208 19 11.6896 18.8356 11.6896 18.633V11.1658H14.5093C14.7177 11.1658 14.8865 11.0016 14.8865 10.7988L14.8876 7.83949C14.8876 7.74211 14.8478 7.64886 14.7772 7.57994C14.7066 7.51103 14.6103 7.47227 14.5103 7.47227H11.6896V5.74086C11.6896 4.90868 11.8933 4.48622 13.0073 4.48622L14.623 4.48566C14.8312 4.48566 15 4.32124 15 4.11863V1.37077C15 1.16835 14.8314 1.00412 14.6234 1.00375Z" fill="#BDBDBD"/>
</g>
<defs>
<filter id="filter0_d_118_186" x="-4" y="0" width="28" height="28" filterUnits="userSpaceOnUse" color-interpolation-filters="sRGB">
<feFlood flood-opacity="0" result="BackgroundImageFix"/>
<feColorMatrix in="SourceAlpha" type="matrix" values="0 0 0 0 0 0 0 0 0 0 0 0 0 0 0 0 0 0 127 0" result="hardAlpha"/>
<feOffset dy="4"/>
<feGaussianBlur stdDeviation="2"/>
<feColorMatrix type="matrix" values="0 0 0 0 0 0 0 0 0 0 0 0 0 0 0 0 0 0 0.25 0"/>
<feBlend mode="normal" in2="BackgroundImageFix" result="effect1_dropShadow_118_186"/>
<feBlend mode="normal" in="SourceGraphic" in2="effect1_dropShadow_118_186" result="shape"/>
</filter>
</defs>
</svg>
