<svg width="15" height="12" viewBox="0 0 15 12" fill="none" xmlns="http://www.w3.org/2000/svg">
<path d="M12.2214 4.9401H11.5106V3.20875C11.5106 1.43961 9.71154 0 7.50024 0C5.28813 0 3.48935 1.43942 3.48935 3.20875V4.9401H2.77883C2.3699 4.9401 2.03857 5.20528 2.03857 5.5323V11.4078C2.03857 11.7348 2.3699 12 2.77883 12H12.2215C12.6295 12 12.9617 11.7348 12.9617 11.4078V5.5323C12.9617 5.20528 12.6295 4.9401 12.2214 4.9401ZM4.96969 3.20875C4.96969 2.09229 6.10467 1.18431 7.5002 1.18431C8.89541 1.18431 10.0304 2.09229 10.0304 3.20875V4.9401H4.96969V3.20875Z" fill="white"/>
</svg>
