<svg width="47" height="51" viewBox="0 0 47 51" fill="none" xmlns="http://www.w3.org/2000/svg">
<g clip-path="url(#clip0_118_258)">
<path d="M44.4679 41.7098H37.0161C32.3203 41.7098 28.4998 37.5518 28.4998 32.4412C28.4998 27.3305 32.3203 23.1725 37.0161 23.1725H44.4679C45.0563 23.1725 45.5324 22.6543 45.5324 22.0139V18.5381C45.5324 16.1086 43.8009 14.1327 41.6132 13.9411L35.4994 2.31908C34.9328 1.2442 34.018 0.475954 32.9233 0.156945C31.8337 -0.159892 30.6944 0.00650999 29.7193 0.624217L8.76089 13.9038H5.07996C2.73156 13.9038 0.821777 15.9822 0.821777 18.5381V46.3442C0.821777 48.9001 2.73146 50.9786 5.07996 50.9786H41.2742C43.6226 50.9786 45.5324 48.9002 45.5324 46.3442V42.8684C45.5324 42.228 45.0563 41.7098 44.4679 41.7098ZM36.8197 9.49434L39.1392 13.9038H29.8607L36.8197 9.49434ZM12.9924 13.9038L30.791 2.62679C31.2724 2.32017 31.8347 2.2387 32.3723 2.3949C32.916 2.55326 33.3693 2.9357 33.651 3.47086L33.6532 3.4751L17.1951 13.9038H12.9924Z" fill="#0CBDB8"/>
<path d="M44.4674 25.4897H37.0156C33.4935 25.4897 30.6284 28.6079 30.6284 32.4413C30.6284 36.2746 33.4935 39.3928 37.0156 39.3928H44.4674C46.2285 39.3928 47.661 37.8337 47.661 35.917V28.9655C47.661 27.0488 46.2285 25.4897 44.4674 25.4897ZM37.0156 34.7584C35.842 34.7584 34.8866 33.7186 34.8866 32.4413C34.8866 31.1639 35.842 30.1241 37.0156 30.1241C38.1893 30.1241 39.1447 31.1639 39.1447 32.4413C39.1448 33.7186 38.1894 34.7584 37.0156 34.7584Z" fill="#0CBDB8"/>
</g>
<defs>
<clipPath id="clip0_118_258">
<rect width="47" height="51" fill="white"/>
</clipPath>
</defs>
</svg>
