<svg width="16" height="18" viewBox="0 0 16 18" fill="none" xmlns="http://www.w3.org/2000/svg">
<path d="M15.5804 13.2102L13.3429 10.6982C12.5438 9.80109 11.1853 10.16 10.8656 11.3262C10.6259 12.1337 9.82675 12.5822 9.10754 12.4028C7.50929 11.9542 5.35166 9.62167 4.95209 7.73771C4.71236 6.93026 5.19183 6.03313 5.91104 5.76403C6.9499 5.40518 7.26955 3.88007 6.47043 2.98294L4.23288 0.470991C3.59358 -0.156997 2.63464 -0.156997 2.07525 0.470991L0.556915 2.17553C-0.96142 3.96978 0.71674 8.72454 4.47262 12.941C8.2285 17.1575 12.4639 19.1312 14.0621 17.3369L15.5804 15.6324C16.1399 14.9147 16.1399 13.8382 15.5804 13.2102Z" fill="white"/>
</svg>
