<svg width="16" height="13" viewBox="0 0 16 13" fill="none" xmlns="http://www.w3.org/2000/svg">
<g clip-path="url(#clip0_118_216)">
<path d="M8.72712 6.69698C10.9996 6.69698 12.8483 5.19485 12.8483 3.34849C12.8483 1.50213 10.9996 0 8.72712 0C8.71824 0 8.70943 0.000126953 8.70065 0.00040625H5.33415L5.33324 0.000355469C4.93159 0.000355469 4.60596 0.264926 4.60596 0.591272V6.10609V7.87881H3.87865C3.47699 7.87881 3.15137 8.14338 3.15137 8.46973C3.15137 8.79607 3.47699 9.06065 3.87865 9.06065H4.60593V12.4091C4.60593 12.7355 4.93155 13.0001 5.33321 13.0001C5.73487 13.0001 6.06049 12.7355 6.06049 12.4091V9.06059H8.72715C9.1288 9.06059 9.45443 8.79602 9.45443 8.46968C9.45443 8.14333 9.1288 7.87876 8.72715 7.87876H6.06049V6.69696L8.72712 6.69698ZM8.72712 1.18221C8.73496 1.18221 8.74284 1.18209 8.75059 1.18191C10.2103 1.19214 11.3938 2.16013 11.3938 3.34849C11.3938 4.5432 10.1975 5.51515 8.72712 5.51515H6.06046V1.18221H8.72712Z" fill="#0CBDB8"/>
</g>
<defs>
<clipPath id="clip0_118_216">
<rect width="16" height="13" fill="white"/>
</clipPath>
</defs>
</svg>
