<svg width="18" height="16" viewBox="0 0 18 16" fill="none" xmlns="http://www.w3.org/2000/svg">
<path d="M15.1863 13.6042C15.1539 11.7606 14.5078 10.0843 13.359 8.87059C12.2169 7.66431 10.669 7 9.00006 7C7.33112 7 5.78326 7.66431 4.64114 8.87059C3.49343 10.083 2.84771 11.757 2.81396 13.5983C3.46295 13.8872 6.14853 15 9.00006 15C12.0835 15 14.5844 13.8938 15.1863 13.6042Z" fill="white"/>
<path d="M9 6.5C10.7086 6.5 12.0938 5.26878 12.0938 3.75C12.0938 2.23122 10.7086 1 9 1C7.29137 1 5.90625 2.23122 5.90625 3.75C5.90625 5.26878 7.29137 6.5 9 6.5Z" fill="white"/>
</svg>
