<svg width="20" height="20" viewBox="0 0 20 20" fill="none" xmlns="http://www.w3.org/2000/svg">
<path d="M16.7577 10.7666C16.4498 10.3129 16.5379 10.111 16.7577 9.70547C16.7617 9.70084 19.3037 5.6027 19.5656 4.21288L19.5672 4.21196C19.6974 3.70547 19.5672 3.33325 18.9379 3.33325H16.8553C16.3252 3.33325 16.0807 3.6527 15.9498 4.0101C15.9498 4.0101 14.8895 6.97121 13.3895 8.89066C12.9053 9.44529 12.6815 9.62307 12.4172 9.62307C12.2871 9.62307 12.0847 9.44529 12.0847 8.93881V4.21196C12.0847 3.60455 11.9363 3.33325 11.4974 3.33325H8.22278C7.89024 3.33325 7.69262 3.61659 7.69262 3.88047C7.69262 4.4564 8.44263 4.58881 8.5204 6.20918V9.72492C8.5204 10.4953 8.40056 10.637 8.13469 10.637C7.42675 10.637 5.7085 7.66381 4.69024 4.26103C4.48469 3.60084 4.28389 3.33418 3.74977 3.33418H1.66643C1.07199 3.33418 0.952148 3.65362 0.952148 4.01103C0.952148 4.64251 1.66008 7.78233 4.24421 11.9305C5.96643 14.762 8.39183 16.2962 10.5982 16.2962C11.9244 16.2962 12.0863 15.9555 12.0863 15.3694C12.0863 12.6638 11.9664 12.4083 12.6307 12.4083C12.9387 12.4083 13.4688 12.586 14.7069 13.9518C16.122 15.5712 16.3545 16.2962 17.1466 16.2962H19.2291C19.8228 16.2962 20.1236 15.9555 19.9506 15.2833C19.5545 13.8694 16.8783 10.961 16.7577 10.7666Z" fill="#BDBDBD"/>
</svg>
